<svg
	xmlns="http://www.w3.org/2000/svg" data-name="Layer 3" viewBox="-10 0 80 80" id="Programmer">
	<rect width="36" height="14" x="14" y="49" fill="#8526fe" class="colorf2b89e svgShape"></rect>
	<path fill="#ad59d4" d="M20,63V49H13l1.322-7.933A6.288,6.288,0,0,1,19,36h0l8-2H37l8,2h0a6.288,6.288,0,0,1,4.678,5.067L51,49H44V63Z" class="color80ac00 svgShape"></path>
	<path fill="#c07300" d="M45,36l-6.313-1.578-6.334.966A12.433,12.433,0,0,0,21.8,47.679V63H44V49h7l-1.322-7.933A6.288,6.288,0,0,0,45,36Z" class="color8bc000 svgShape"></path>
	<path fill="#d8a353" d="M37,29v5l-.336.5A5.607,5.607,0,0,1,32,37h0a5.607,5.607,0,0,1-4.664-2.5L27,34V29Z" class="colord08c76 svgShape"></path>
	<path fill="#383838" d="M19.812,20.246l-.6-2.409a7.009,7.009,0,0,1-.209-1.7h0a6.988,6.988,0,0,1,.36-2.216h0A12.481,12.481,0,0,0,20,9.975h0a5.87,5.87,0,0,1,3.691-5.451L25,4V7h0a9.142,9.142,0,0,1,6.385-4.877L32,2v.764A3.618,3.618,0,0,0,34,6h0V4l3.036.867A7.139,7.139,0,0,1,42,10h0a4.387,4.387,0,0,1,3,4.162h0a23.054,23.054,0,0,1-.688,5.591l-.124.493Z" class="color383838 svgShape"></path>
	<path fill="#4c4c4c" d="M44.312,19.753A23.054,23.054,0,0,0,45,14.162h0A4.387,4.387,0,0,0,42,10a7.139,7.139,0,0,0-4.964-5.133L34,4V6a3.618,3.618,0,0,1-2-3.236V2l-.615.123A9.142,9.142,0,0,0,25,7V5.586a5.845,5.845,0,0,0-2,4.389,12.481,12.481,0,0,1-.64,3.946,7.008,7.008,0,0,0-.151,3.916l.6,2.409H44.188Z" class="color4c4c4c svgShape"></path>
	<path fill="#d8a353" d="M22.109 20H21a3 3 0 00-3 3h0a3 3 0 003 3h1.833M41.891 20H43a3 3 0 013 3h0a3 3 0 01-3 3H41.167" class="colord08c76 svgShape"></path>
	<path fill="#d8a353" d="M35.664,13.891h0A5.3,5.3,0,0,1,38.606,13h0a1.935,1.935,0,0,1,1.835,1.323l.61,1.831A18.468,18.468,0,0,1,42,22h0A10,10,0,0,1,32,32h0A10,10,0,0,1,22,22h0a18.468,18.468,0,0,1,.949-5.846l.61-1.831A1.935,1.935,0,0,1,25.394,13h0a5.3,5.3,0,0,1,2.942.891h0A6.608,6.608,0,0,0,32,15h0A6.608,6.608,0,0,0,35.664,13.891Z" class="colord08c76 svgShape"></path>
	<path fill="#8526fe" d="M33 31.95A10 10 0 0042 22h0a18.468 18.468 0 00-.949-5.846l-.61-1.831A1.935 1.935 0 0038.606 13a5.3 5.3 0 00-2.942.891 6.607 6.607 0 01-7.328 0 5.277 5.277 0 00-1.68-.725 1.917 1.917 0 00-1.1 1.157l-.61 1.831A18.468 18.468 0 0024 22 10 10 0 0033 31.95zM36.664 34.5L37 34V31.651a9.952 9.952 0 01-7.4 1.056A1.311 1.311 0 0028 34h0l.336.5A5.6 5.6 0 0032.5 36.969 5.6 5.6 0 0036.664 34.5z" class="colorf2b89e svgShape"></path>
	<rect width="4" height="2" x="30" y="20" fill="#a3dbd4" class="colora3b8db svgShape"></rect>
	<path fill="#a3dbd4" d="M38.415 22.411l3.53-1.766a18.252 18.252 0 00-.283-2.094l-4.141 2.071zM26.479 20.622l-4.141-2.071a18.252 18.252 0 00-.283 2.094l3.53 1.766z" class="colora3b8db svgShape"></path>
	<rect width="5" height="4" x="25" y="19" fill="#d6efec" class="colord6dfef svgShape"></rect>
	<rect width="5" height="4" x="34" y="19" fill="#d6efec" class="colord6dfef svgShape"></rect>
	<polyline fill="#5fe4d4" points="35.25 58 26 58 26 62 38.202 62" class="color93add1 svgShape"></polyline>
	<polygon fill="#a3dbd4" points="34 62 55 62 60 46 39 46 39 46 34 62" class="colora3b8db svgShape"></polygon>
	<path fill="#c0e8e3" d="M60,46H40.375l-1.221,3.906A7.775,7.775,0,0,0,46.575,60h9.05Z" class="colorc0cee8 svgShape"></path>
	<circle cx="47" cy="54" r="2" fill="#ffffff" class="colorffffff svgShape"></circle>
	<path d="M60.806,45.407A1,1,0,0,0,60,45H51.347l-.683-4.1a7.285,7.285,0,0,0-5.422-5.873L38,33.22V31.208A11.08,11.08,0,0,0,41.786,27H42.9A4.057,4.057,0,0,0,47,23a3.952,3.952,0,0,0-1.675-3.206A24.022,24.022,0,0,0,46,14.162,5.378,5.378,0,0,0,42.825,9.25,8.163,8.163,0,0,0,37.31,3.906l-3.036-.867A1,1,0,0,0,33.4,3.2a1.017,1.017,0,0,0-.283.333A2.63,2.63,0,0,1,33,2.764V2a1,1,0,0,0-1.2-.98l-.615.123A10.084,10.084,0,0,0,26,3.917a1,1,0,0,0-1.367-.845l-1.31.524A6.836,6.836,0,0,0,19,9.975a11.428,11.428,0,0,1-.589,3.629,8.014,8.014,0,0,0-.172,4.476l.423,1.689A3.99,3.99,0,0,0,21,27h1.214A11.08,11.08,0,0,0,26,31.208V33.22l-7.242,1.81A7.283,7.283,0,0,0,13.336,40.9l-1.322,7.933A1,1,0,0,0,13,50V63h2V50h4V63h2V49a1,1,0,0,0-1-1H14.181l1.128-6.769a5.284,5.284,0,0,1,3.933-4.261l7.323-1.831a6.593,6.593,0,0,0,10.87,0l7.323,1.831a5.284,5.284,0,0,1,3.933,4.261L49.32,45H39a1,1,0,0,0-.954.7L34.515,57H26a1,1,0,0,0-1,1v4a1,1,0,0,0,1,1H55a1,1,0,0,0,.954-.7l5-16A1,1,0,0,0,60.806,45.407ZM39,18H34a1,1,0,0,0-1,1v1H31V19a1,1,0,0,0-1-1H25a1,1,0,0,0-1,1v.382l-.737-.369A17.535,17.535,0,0,1,23.9,16.47l.611-1.831A.935.935,0,0,1,25.4,14a4.288,4.288,0,0,1,2.386.723,7.728,7.728,0,0,0,8.438,0A4.288,4.288,0,0,1,38.6,14a.935.935,0,0,1,.888.639l.61,1.831a17.538,17.538,0,0,1,.634,2.543L40,19.382V19A1,1,0,0,0,39,18Zm-1,2v2H35V20Zm-9,0v2H26V20Zm13.9,5h-.322A10.966,10.966,0,0,0,43,22c0-.332-.023-.663-.04-.994A2,2,0,1,1,42.9,25ZM20.18,17.6a6,6,0,0,1,.128-3.357A13.418,13.418,0,0,0,21,9.975a4.846,4.846,0,0,1,3-4.5V7a1,1,0,0,0,1.895.447,8.082,8.082,0,0,1,5.128-4.212,4.6,4.6,0,0,0,2.53,3.66A1,1,0,0,0,35,6V5.326l1.761.5a6.158,6.158,0,0,1,4.269,4.414,1,1,0,0,0,.654.706A3.382,3.382,0,0,1,44,14.162a22.02,22.02,0,0,1-.56,4.892A4.042,4.042,0,0,0,42.9,19h-.132A19.482,19.482,0,0,0,42,15.837l-.61-1.831A2.933,2.933,0,0,0,38.6,12a6.281,6.281,0,0,0-3.5,1.059,5.7,5.7,0,0,1-6.218,0A6.281,6.281,0,0,0,25.4,12a2.933,2.933,0,0,0-2.785,2.006L22,15.838A19.547,19.547,0,0,0,21.236,19H21a4.059,4.059,0,0,0-.458.046ZM21,25a2,2,0,0,1,0-4h.04c-.017.333-.04.666-.04,1a10.966,10.966,0,0,0,.426,3Zm2-3c0-.289.02-.577.035-.865l.965.483V23a1,1,0,0,0,1,1h5a1,1,0,0,0,1-1V22h2v1a1,1,0,0,0,1,1h5a1,1,0,0,0,1-1V21.618l.965-.483c.015.288.035.576.035.865a9,9,0,0,1-18,0ZM35.832,33.949a4.605,4.605,0,0,1-7.664,0L28,33.7V32.236a10.853,10.853,0,0,0,8,0V33.7ZM33.265,61H27V59h6.89Zm21,0H35.36l4.375-14H58.64Z" fill="#000000" class="color000000 svgShape"></path>
	<path d="M47,57a3,3,0,1,0-3-3A3,3,0,0,0,47,57Zm0-4a1,1,0,1,1-1,1A1,1,0,0,1,47,53Z" fill="#000000" class="color000000 svgShape"></path>
</svg>